<svg width="36" height="31" viewBox="0 0 36 31" fill="none" xmlns="http://www.w3.org/2000/svg">
<path d="M3.89618 0C4.43095 0 4.92752 0.0689289 5.3859 0.206787C5.85015 0.344644 6.25269 0.551431 6.59354 0.827146C6.94025 1.09687 7.21058 1.43552 7.40451 1.8431C7.60431 2.25068 7.70421 2.72718 7.70421 3.27262V8.84687C7.70421 9.31439 7.65426 9.72796 7.55436 10.0876C7.45446 10.4412 7.32223 10.7499 7.15769 11.0136C6.99902 11.2714 6.81685 11.4931 6.61117 11.6789C6.40548 11.8588 6.19687 12.0056 5.98531 12.1195C5.47992 12.3952 4.90695 12.551 4.26641 12.587H1.33986C1.0049 12.587 0.746327 12.5301 0.564153 12.4162C0.381978 12.2963 0.249755 12.1405 0.167483 11.9487C0.0852106 11.7509 0.0352595 11.5291 0.0176298 11.2834C0.00587659 11.0376 0 10.7829 0 10.5191V2.04988C0 1.79215 0.00587659 1.54041 0.0176298 1.29466C0.0352595 1.04892 0.0852106 0.830143 0.167483 0.638341C0.249755 0.446539 0.381978 0.293697 0.564153 0.179814C0.746327 0.0599381 1.0049 0 1.33986 0H3.89618ZM2.67973 2.10383V10.4472H3.82566C4.07835 10.4352 4.3046 10.3753 4.50441 10.2674C4.58668 10.2254 4.66895 10.1685 4.75122 10.0966C4.8335 10.0247 4.90695 9.94074 4.9716 9.84484C5.03624 9.74294 5.08619 9.62307 5.12145 9.48521C5.16259 9.34735 5.18315 9.18851 5.18315 9.0087V3.70418C5.18315 3.50638 5.16259 3.33256 5.12145 3.18271C5.08619 3.02688 5.03624 2.89201 4.9716 2.77813C4.90695 2.66425 4.8335 2.56835 4.75122 2.49043C4.66895 2.41251 4.58668 2.34957 4.50441 2.30162C4.3046 2.18774 4.07835 2.12181 3.82566 2.10383H2.67973Z" fill="#1B1D1E"/>
<path d="M16.5015 10.5551C16.5015 10.8068 16.4927 11.0556 16.475 11.3013C16.4574 11.5411 16.4045 11.7569 16.3164 11.9487C16.2282 12.1405 16.096 12.2963 15.9197 12.4162C15.7434 12.5301 15.4966 12.587 15.1792 12.587C14.856 12.587 14.6033 12.5331 14.4212 12.4252C14.239 12.3113 14.1038 12.1764 14.0157 12.0206C13.9275 11.8588 13.8717 11.6909 13.8482 11.5171C13.8306 11.3433 13.8217 11.1964 13.8217 11.0766C13.7689 11.2504 13.6925 11.4272 13.5926 11.607C13.4985 11.7868 13.3751 11.9487 13.2223 12.0925C13.0695 12.2364 12.8844 12.3562 12.667 12.4521C12.4554 12.5421 12.2057 12.587 11.9177 12.587C11.5945 12.587 11.2713 12.5331 10.9481 12.4252C10.6249 12.3173 10.334 12.1375 10.0754 11.8857C9.81685 11.634 9.60529 11.3073 9.44074 10.9057C9.28208 10.4982 9.20274 9.99768 9.20274 9.40429V6.79698C9.20274 6.1976 9.28208 5.69712 9.44074 5.29553C9.60529 4.88795 9.81685 4.56129 10.0754 4.31555C10.334 4.06381 10.6249 3.88399 10.9481 3.7761C11.2713 3.66821 11.5945 3.61427 11.9177 3.61427C12.2057 3.61427 12.4554 3.65922 12.667 3.74913C12.8844 3.83904 13.0695 3.95592 13.2223 4.09977C13.3751 4.24362 13.4985 4.40545 13.5926 4.58527C13.6925 4.76508 13.7689 4.9449 13.8217 5.12471C13.8217 4.82502 13.8629 4.57628 13.9452 4.37848C14.0274 4.18068 14.1332 4.02485 14.2625 3.91096C14.3918 3.79109 14.5357 3.71017 14.6944 3.66821C14.859 3.62026 15.0206 3.59629 15.1792 3.59629C15.4731 3.59629 15.7081 3.65623 15.8844 3.7761C16.0607 3.88998 16.1929 4.04283 16.2811 4.23463C16.3751 4.42044 16.4339 4.63921 16.4574 4.89095C16.4868 5.1367 16.5015 5.38844 16.5015 5.64617V10.5551ZM11.9177 9.17053C11.9177 9.33237 11.9236 9.4912 11.9354 9.64704C11.9471 9.80288 11.9794 9.94374 12.0323 10.0696C12.0852 10.1955 12.1616 10.2974 12.2615 10.3753C12.3673 10.4472 12.5113 10.4832 12.6934 10.4832C12.9226 10.4832 13.1077 10.4322 13.2488 10.3303C13.3957 10.2224 13.5103 10.0606 13.5926 9.84484C13.6748 9.62307 13.7307 9.34735 13.76 9.01769C13.7953 8.68204 13.8159 8.28345 13.8217 7.82193C13.8217 7.63612 13.8041 7.42334 13.7689 7.18358C13.7395 6.93784 13.6836 6.70708 13.6014 6.4913C13.5191 6.27552 13.4045 6.09271 13.2576 5.94287C13.1107 5.79302 12.9226 5.7181 12.6934 5.7181C12.5113 5.7181 12.3673 5.75706 12.2615 5.83498C12.1616 5.9069 12.0852 6.0028 12.0323 6.12268C11.9794 6.24256 11.9471 6.38041 11.9354 6.53625C11.9236 6.6861 11.9177 6.83894 11.9177 6.99478V9.17053Z" fill="#1B1D1E"/>
<path d="M18.811 5.61021C18.811 5.35847 18.8227 5.11272 18.8462 4.87297C18.8756 4.63322 18.9373 4.42044 19.0313 4.23463C19.1254 4.04283 19.2605 3.88998 19.4368 3.7761C19.6131 3.65623 19.8511 3.59629 20.1508 3.59629C20.4505 3.59629 20.6885 3.65623 20.8648 3.7761C21.0411 3.88998 21.1763 4.04283 21.2703 4.23463C21.3643 4.42044 21.4231 4.63322 21.4466 4.87297C21.476 5.11272 21.4907 5.35847 21.4907 5.61021V10.5731C21.4907 10.8248 21.476 11.0736 21.4466 11.3193C21.4231 11.5591 21.3643 11.7748 21.2703 11.9666C21.1763 12.1525 21.0411 12.3023 20.8648 12.4162C20.6885 12.5301 20.4505 12.587 20.1508 12.587C19.8511 12.587 19.6131 12.5301 19.4368 12.4162C19.2605 12.3023 19.1254 12.1525 19.0313 11.9666C18.9373 11.7748 18.8756 11.5591 18.8462 11.3193C18.8227 11.0736 18.811 10.8248 18.811 10.5731V5.61021ZM21.5083 1.36659C21.5083 1.82811 21.3908 2.17276 21.1557 2.40052C20.9207 2.62229 20.5916 2.73318 20.1685 2.73318C19.7453 2.73318 19.4163 2.62229 19.1812 2.40052C18.9461 2.17276 18.8286 1.82811 18.8286 1.36659C18.8286 0.887084 18.9461 0.539443 19.1812 0.323666C19.4163 0.107889 19.7453 0 20.1685 0C20.621 0 20.9559 0.107889 21.1734 0.323666C21.3967 0.539443 21.5083 0.887084 21.5083 1.36659Z" fill="#1B1D1E"/>
<path d="M24.2057 1.99594C24.2057 1.7442 24.2174 1.49845 24.2409 1.2587C24.2703 1.01895 24.332 0.806168 24.4261 0.62036C24.5201 0.434551 24.6552 0.284706 24.8315 0.170824C25.0078 0.0569412 25.2458 0 25.5455 0C25.8511 0 26.0921 0.0569412 26.2684 0.170824C26.4447 0.284706 26.5769 0.434551 26.665 0.62036C26.7591 0.806168 26.8178 1.01895 26.8413 1.2587C26.8707 1.49845 26.8854 1.7442 26.8854 1.99594V10.5731C26.8854 10.8248 26.8707 11.0736 26.8413 11.3193C26.8178 11.5591 26.7591 11.7748 26.665 11.9666C26.5769 12.1525 26.4447 12.3023 26.2684 12.4162C26.0921 12.5301 25.8511 12.587 25.5455 12.587C25.2458 12.587 25.0078 12.5301 24.8315 12.4162C24.6552 12.3023 24.5201 12.1525 24.4261 11.9666C24.332 11.7748 24.2703 11.5591 24.2409 11.3193C24.2174 11.0736 24.2057 10.8248 24.2057 10.5731V1.99594Z" fill="#1B1D1E"/>
<path d="M30.1645 16.1833C29.4946 16.1833 29.0186 16.0844 28.7365 15.8866C28.4545 15.6948 28.3134 15.4101 28.3134 15.0325C28.3134 14.8467 28.3369 14.6908 28.3839 14.565C28.4368 14.4391 28.5073 14.3372 28.5955 14.2593C28.6836 14.1814 28.7835 14.1244 28.8952 14.0885C29.0127 14.0585 29.1361 14.0435 29.2654 14.0435C29.3536 14.0435 29.4358 14.0465 29.5122 14.0525C29.5886 14.0585 29.6533 14.0615 29.7062 14.0615C29.8178 14.0615 29.9236 13.9926 30.0235 13.8547C30.1293 13.7228 30.2292 13.555 30.3232 13.3512C30.4231 13.1474 30.523 12.9287 30.6229 12.6949C30.7228 12.4611 30.8227 12.2454 30.9226 12.0476L30.7816 11.6879C30.6112 11.2504 30.4319 10.7919 30.2439 10.3124C30.0558 9.82686 29.8678 9.33836 29.6797 8.84687C29.4976 8.34938 29.3154 7.85489 29.1332 7.3634C28.9569 6.87191 28.7953 6.3954 28.6484 5.93387C28.5837 5.74207 28.5279 5.55327 28.4809 5.36746C28.4398 5.18165 28.4192 4.99884 28.4192 4.81903C28.4192 4.64521 28.4545 4.48337 28.525 4.33353C28.5955 4.18368 28.6925 4.05481 28.8159 3.94693C28.9393 3.83904 29.0803 3.75512 29.239 3.69519C29.4035 3.62925 29.5769 3.59629 29.7591 3.59629C29.9236 3.59629 30.0735 3.63225 30.2086 3.70418C30.3497 3.7761 30.4731 3.875 30.5788 4.00087C30.6905 4.12674 30.7875 4.27059 30.8697 4.43242C30.952 4.59426 31.0225 4.76508 31.0813 4.9449L32.2625 8.73898L33.3908 4.9449C33.4437 4.77707 33.5113 4.60924 33.5935 4.44142C33.6758 4.27359 33.7728 4.12674 33.8844 4.00087C33.9961 3.86901 34.1224 3.76411 34.2635 3.68619C34.4045 3.60228 34.5602 3.56032 34.7307 3.56032C34.9011 3.56032 35.0627 3.59329 35.2155 3.65922C35.3741 3.72515 35.5093 3.81806 35.621 3.93794C35.7385 4.05182 35.8296 4.18968 35.8942 4.35151C35.9647 4.51334 36 4.68716 36 4.87297C36 5.05278 35.9765 5.2326 35.9295 5.41241C35.8883 5.58623 35.8355 5.76005 35.7708 5.93387L33.6552 11.652C33.5318 11.9756 33.3967 12.3113 33.2498 12.6589C33.1087 13.0126 32.953 13.3572 32.7826 13.6929C32.6121 14.0285 32.43 14.3462 32.236 14.6459C32.0421 14.9456 31.8364 15.2093 31.619 15.4371C31.4016 15.6648 31.1694 15.8446 30.9226 15.9765C30.6817 16.1144 30.429 16.1833 30.1645 16.1833Z" fill="#1B1D1E"/>
<path d="M3.89618 18.413C4.43095 18.413 4.92752 18.4819 5.3859 18.6198C5.85015 18.7576 6.25269 18.9644 6.59354 19.2401C6.94025 19.5099 7.21058 19.8485 7.40451 20.2561C7.60431 20.6637 7.70421 21.1402 7.70421 21.6856V27.2599C7.70421 27.7274 7.65426 28.141 7.55436 28.5006C7.45446 28.8542 7.32223 29.1629 7.15769 29.4266C6.99902 29.6844 6.81685 29.9061 6.61117 30.0919C6.40548 30.2718 6.19687 30.4186 5.98531 30.5325C5.47992 30.8082 4.90695 30.964 4.26641 31H1.33986C1.0049 31 0.746327 30.9431 0.564153 30.8292C0.381978 30.7093 0.249755 30.5535 0.167483 30.3617C0.0852106 30.1639 0.0352595 29.9421 0.0176298 29.6963C0.00587659 29.4506 0 29.1959 0 28.9321V20.4629C0 20.2051 0.00587659 19.9534 0.0176298 19.7077C0.0352595 19.4619 0.0852106 19.2431 0.167483 19.0513C0.249755 18.8595 0.381978 18.7067 0.564153 18.5928C0.746327 18.4729 1.0049 18.413 1.33986 18.413H3.89618ZM2.67973 20.5168V28.8602H3.82566C4.07835 28.8482 4.3046 28.7883 4.50441 28.6804C4.58668 28.6384 4.66895 28.5815 4.75122 28.5096C4.8335 28.4376 4.90695 28.3537 4.9716 28.2578C5.03624 28.1559 5.08619 28.0361 5.12145 27.8982C5.16259 27.7603 5.18315 27.6015 5.18315 27.4217V22.1172C5.18315 21.9194 5.16259 21.7456 5.12145 21.5957C5.08619 21.4399 5.03624 21.305 4.9716 21.1911C4.90695 21.0772 4.8335 20.9813 4.75122 20.9034C4.66895 20.8255 4.58668 20.7626 4.50441 20.7146C4.3046 20.6007 4.07835 20.5348 3.82566 20.5168H2.67973Z" fill="#1B1D1E"/>
<path d="M9.81978 24.0232C9.81978 23.7715 9.83154 23.5257 9.85504 23.286C9.88443 23.0462 9.94613 22.8334 10.0402 22.6476C10.1342 22.4558 10.2693 22.303 10.4456 22.1891C10.6219 22.0692 10.8599 22.0093 11.1596 22.0093C11.4594 22.0093 11.6974 22.0692 11.8737 22.1891C12.05 22.303 12.1851 22.4558 12.2791 22.6476C12.3732 22.8334 12.4319 23.0462 12.4554 23.286C12.4848 23.5257 12.4995 23.7715 12.4995 24.0232V28.9861C12.4995 29.2378 12.4848 29.4866 12.4554 29.7323C12.4319 29.9721 12.3732 30.1878 12.2791 30.3796C12.1851 30.5654 12.05 30.7153 11.8737 30.8292C11.6974 30.9431 11.4594 31 11.1596 31C10.8599 31 10.6219 30.9431 10.4456 30.8292C10.2693 30.7153 10.1342 30.5654 10.0402 30.3796C9.94613 30.1878 9.88443 29.9721 9.85504 29.7323C9.83154 29.4866 9.81978 29.2378 9.81978 28.9861V24.0232ZM12.5171 19.7796C12.5171 20.2411 12.3996 20.5858 12.1645 20.8135C11.9295 21.0353 11.6004 21.1462 11.1773 21.1462C10.7542 21.1462 10.4251 21.0353 10.19 20.8135C9.95495 20.5858 9.83741 20.2411 9.83741 19.7796C9.83741 19.3001 9.95495 18.9524 10.19 18.7367C10.4251 18.5209 10.7542 18.413 11.1773 18.413C11.6298 18.413 11.9647 18.5209 12.1822 18.7367C12.4055 18.9524 12.5171 19.3001 12.5171 19.7796Z" fill="#1B1D1E"/>
<path d="M22.2311 25.8753C22.2311 25.9712 22.2253 26.0851 22.2135 26.2169C22.2018 26.3428 22.1548 26.4657 22.0725 26.5856C21.9961 26.6994 21.8727 26.7983 21.7023 26.8822C21.5318 26.9662 21.2909 27.0081 20.9794 27.0081H17.4711V27.8712C17.4711 28.0151 17.4887 28.1649 17.524 28.3208C17.5593 28.4766 17.618 28.6205 17.7003 28.7523C17.7884 28.8842 17.903 28.9921 18.0441 29.076C18.1851 29.1599 18.3585 29.2019 18.5642 29.2019C18.7992 29.2019 18.9785 29.1749 19.1019 29.1209C19.2311 29.061 19.331 28.9891 19.4016 28.9052C19.478 28.8212 19.5455 28.7313 19.6043 28.6354C19.6631 28.5395 19.7395 28.4496 19.8335 28.3657C19.9334 28.2818 20.0686 28.2129 20.239 28.1589C20.4153 28.099 20.6562 28.069 20.9618 28.069C21.1087 28.069 21.2498 28.081 21.3849 28.105C21.526 28.129 21.6494 28.1739 21.7551 28.2398C21.8609 28.3058 21.9461 28.3987 22.0108 28.5186C22.0754 28.6324 22.1077 28.7823 22.1077 28.9681C22.1077 29.3577 21.9873 29.6844 21.7463 29.9481C21.5054 30.2058 21.2027 30.4126 20.8384 30.5684C20.474 30.7243 20.0774 30.8352 19.6484 30.9011C19.2253 30.967 18.8286 31 18.4584 31C17.9706 30.994 17.5064 30.9311 17.0656 30.8112C16.6249 30.6913 16.2341 30.4995 15.8932 30.2358C15.5583 29.9721 15.2909 29.6274 15.0911 29.2019C14.8913 28.7763 14.7914 28.2548 14.7914 27.6375V25.5336C14.7914 24.9642 14.856 24.4817 14.9853 24.0861C15.1205 23.6905 15.2938 23.3609 15.5054 23.0972C15.7169 22.8334 15.9549 22.6296 16.2194 22.4858C16.4838 22.3359 16.7512 22.2251 17.0215 22.1531C17.2919 22.0812 17.5475 22.0363 17.7884 22.0183C18.0353 22.0003 18.2468 21.9913 18.4231 21.9913C19.0166 21.9913 19.522 22.0452 19.9393 22.1531C20.3624 22.261 20.715 22.4019 20.9971 22.5757C21.2791 22.7495 21.5024 22.9503 21.667 23.1781C21.8315 23.4058 21.9549 23.6426 22.0372 23.8883C22.1195 24.1281 22.1724 24.3738 22.1959 24.6256C22.2194 24.8713 22.2311 25.1021 22.2311 25.3179V25.8753ZM17.4711 25.6595H19.6748C19.6748 25.3778 19.666 25.1291 19.6484 24.9133C19.6366 24.6915 19.5926 24.5057 19.5162 24.3559C19.4456 24.206 19.331 24.0921 19.1724 24.0142C19.0196 23.9363 18.7992 23.8973 18.5113 23.8973C18.2703 23.8973 18.0793 23.9363 17.9383 24.0142C17.8031 24.0921 17.7003 24.191 17.6298 24.3109C17.5593 24.4248 17.5152 24.5477 17.4976 24.6795C17.4799 24.8114 17.4711 24.9283 17.4711 25.0302V25.6595Z" fill="#1B1D1E"/>
<path d="M25.2458 22.0093V20.4269C25.2458 20.1752 25.2576 19.9294 25.2811 19.6897C25.3105 19.4499 25.3722 19.2371 25.4662 19.0513C25.5602 18.8595 25.6954 18.7067 25.8717 18.5928C26.048 18.4729 26.286 18.413 26.5857 18.413C26.8795 18.413 27.1146 18.4729 27.2909 18.5928C27.4672 18.7067 27.5994 18.8595 27.6876 19.0513C27.7816 19.2371 27.8404 19.4499 27.8639 19.6897C27.8932 19.9294 27.9079 20.1752 27.9079 20.4269V22.0093H28.6308C28.7835 22.0093 28.9363 22.0183 29.0891 22.0363C29.2419 22.0482 29.3771 22.0902 29.4946 22.1621C29.618 22.234 29.715 22.3419 29.7855 22.4858C29.8619 22.6296 29.9001 22.8304 29.9001 23.0882C29.9001 23.3339 29.8619 23.5287 29.7855 23.6726C29.715 23.8164 29.618 23.9243 29.4946 23.9962C29.3771 24.0682 29.2419 24.1161 29.0891 24.1401C28.9363 24.1581 28.7835 24.1671 28.6308 24.1671H27.9079V27.3138C27.9079 27.4337 27.9109 27.5625 27.9167 27.7004C27.9285 27.8323 27.9608 27.9551 28.0137 28.069C28.0666 28.1829 28.1459 28.2788 28.2517 28.3567C28.3575 28.4287 28.5073 28.4646 28.7013 28.4646C28.9128 28.4646 29.0921 28.4826 29.239 28.5186C29.3918 28.5485 29.5152 28.6055 29.6092 28.6894C29.7091 28.7733 29.7826 28.8902 29.8296 29.04C29.8766 29.1899 29.9001 29.3817 29.9001 29.6154C29.9001 29.8552 29.8443 30.062 29.7326 30.2358C29.6268 30.4096 29.4829 30.5535 29.3007 30.6673C29.1185 30.7812 28.907 30.8651 28.666 30.9191C28.4251 30.973 28.1724 31 27.9079 31C27.4907 31 27.1322 30.955 26.8325 30.8651C26.5387 30.7752 26.2919 30.6494 26.0921 30.4875C25.8981 30.3197 25.7424 30.1219 25.6249 29.8941C25.5132 29.6604 25.428 29.3997 25.3692 29.1119C25.3164 28.8242 25.2811 28.5156 25.2635 28.1859C25.2517 27.8503 25.2458 27.4996 25.2458 27.134V24.1671H24.7522C24.5994 24.1671 24.4466 24.1581 24.2938 24.1401C24.1469 24.1161 24.0147 24.0682 23.8972 23.9962C23.7796 23.9243 23.6827 23.8164 23.6063 23.6726C23.5357 23.5287 23.5005 23.3339 23.5005 23.0882C23.5005 22.8304 23.5357 22.6296 23.6063 22.4858C23.6827 22.3419 23.7796 22.234 23.8972 22.1621C24.0147 22.0902 24.1469 22.0482 24.2938 22.0363C24.4466 22.0183 24.5994 22.0093 24.7522 22.0093H25.2458Z" fill="#1B1D1E"/>
</svg>
